<?xml version="1.0" encoding="utf-8"?>
<!-- Generator: Adobe Illustrator 21.1.0, SVG Export Plug-In . SVG Version: 6.00 Build 0)  -->
<svg version="1.1" id="Слой_1" xmlns="http://www.w3.org/2000/svg" xmlns:xlink="http://www.w3.org/1999/xlink" x="0px" y="0px"
	 viewBox="0 0 20 20" style="enable-background:new 0 0 20 20;" xml:space="preserve">
<style type="text/css">
	.st0{fill:#FFFFFF;fill-opacity:1.000000e-02;}
	.st1{fill:#FFFFFF;filter:url(#Adobe_OpacityMaskFilter);}
	.st2{mask:url(#mask0);}
	.st3{fill:#B4254D;}
</style>
<path class="st0" d="M0,20h19.6v-2H0V20z M6.9,13.1v-2.6l5.6-5.2l2,2.1l-5,5.7H6.9z M15.5,2.6l1.7,1.7l-1.3,1.4L14.1,4L15.5,2.6z
	 M20,4.6L15.4,0L4.9,9.7v5.4h5.4L20,4.6z"/>
<defs>
	<filter id="Adobe_OpacityMaskFilter" filterUnits="userSpaceOnUse" x="-1" y="-1" width="22" height="22">
		<feColorMatrix  type="matrix" values="1 0 0 0 0  0 1 0 0 0  0 0 1 0 0  0 0 0 1 0"/>
	</filter>
</defs>
<mask maskUnits="userSpaceOnUse" x="-1" y="-1" width="22" height="22" id="mask0">
	<path class="st1" d="M0,20h19.6v-2H0V20z M6.9,13.1v-2.6l5.6-5.2l2,2.1l-5,5.7H6.9z M15.5,2.6l1.7,1.7l-1.3,1.4L14.1,4L15.5,2.6z
		 M20,4.6L15.4,0L4.9,9.7v5.4h5.4L20,4.6z"/>
</mask>
<g class="st2">
	<rect x="-1" y="-1" class="st3" width="22" height="22"/>
</g>
</svg>
