<?xml version="1.0" encoding="iso-8859-1"?>
<!-- Generator: Adobe Illustrator 19.2.0, SVG Export Plug-In . SVG Version: 6.00 Build 0)  -->
<svg version="1.1" xmlns="http://www.w3.org/2000/svg" xmlns:xlink="http://www.w3.org/1999/xlink" x="0px" y="0px"
	 viewBox="0 0 75.063 81.267" style="enable-background:new 0 0 75.063 81.267;" xml:space="preserve">
<g id="Rencontre_x5F_de_x5F_Jeune_x5F_Talent">
	<path style="fill-rule:evenodd;clip-rule:evenodd;" d="M0.517,0.005c10.441-0.001,20.574,0.001,30.643,0
		c2.606,0,5.117-0.046,7.521,0.151c6.836,0.561,11.611,3.848,15.246,7.724c2.382,2.54,4.415,5.602,5.755,9.591
		c1.265,3.766,1.664,9.007,0.707,13.378c-1.32,6.023-4.633,10.749-8.633,14.337c-0.919,0.824-2.113,1.631-3.382,2.373
		c-0.357,0.208-0.905,0.653-1.212,0.656c-0.526,0.005-1.19-0.887-1.565-1.262c-1.448-1.449-2.745-2.93-4.189-4.291
		c-0.91-0.974-1.885-1.884-2.827-2.827c-0.931-0.93-1.785-1.961-2.878-2.726c-0.728,0.365-1.26,0.927-1.666,1.615
		c0.617,0.984,1.515,1.767,2.322,2.575c5.66,5.661,11.213,11.614,16.912,17.315c4.893,4.894,9.728,9.831,14.64,14.741
		c0.816,0.816,1.557,1.708,2.373,2.524c0.807,0.807,1.741,1.491,2.372,2.473c0.604,0.677,1.296,1.296,1.969,1.969
		c0.174,0.174,0.555,0.437,0.404,0.757c-2.863-0.064-6.671,0.368-9.642,0.101c-0.654-0.059-1.903-1.536-2.574-2.221
		c-5.285-5.39-10.55-10.802-15.852-16.104c-4.628-4.628-9.125-9.079-13.63-13.781c-1.493-1.559-2.914-3.167-4.442-4.695
		c-5.999-5.999-11.987-12.29-18.123-18.426c-1.473-1.473-2.996-3.046-4.544-4.594c-1.527-1.528-2.948-3.166-3.987-5.149
		c-1.542-2.943-2.02-6.873-2.019-11.661c0-1.565-0.106-3.489,0.151-4.443C0.403,0.059,0.458,0.029,0.517,0.005z"/>
	<path style="fill-rule:evenodd;clip-rule:evenodd;" d="M60.995,81.079c-3.181,0.084-6.714,0.085-9.894,0
		c-0.737-0.436-1.298-1.098-1.918-1.666c-1.826-1.671-3.433-3.701-5.301-5.401c-8.333-8.31-16.358-16.859-24.736-25.241
		C17.08,46.704,15,44.608,12.986,42.41c-1.971-2.153-4.191-4.142-6.26-6.209c-2.055-2.055-4.038-4.397-5.149-7.32
		c-1.167-3.072-1.378-6.849-1.362-10.904c-0.004-0.071-0.009-0.143,0.051-0.151c0.364,0.062,0.584,0.808,0.808,1.212
		c0.688,1.243,1.735,2.285,2.524,3.282c6.94,6.983,13.874,14.231,20.899,21.252c1.161,1.162,2.342,2.332,3.483,3.534
		c3.385,3.566,6.769,7.224,10.298,10.752c7,7.001,14.07,14.081,21,21.101C59.795,79.721,60.673,80.122,60.995,81.079z"/>
	<path style="fill-rule:evenodd;clip-rule:evenodd;" d="M46.86,81.028c-2.11,0.181-4.763,0.101-7.169,0.101
		c-0.794,0-1.707,0.142-2.372,0c-0.367-0.078-1.002-0.799-1.464-1.262c-0.508-0.508-0.921-1.022-1.314-1.414
		c-0.964-0.964-1.918-1.851-2.726-2.726c-0.443-0.481-0.811-1.004-1.262-1.464C25.653,69.265,20.533,64.04,15.662,59.17
		c-1.784-1.784-3.577-3.678-5.401-5.502c-4.594-4.595-9.509-8.429-10.097-17.164c-0.111-1.651-0.245-3.621-0.101-5.25
		c-0.015-0.082,0.048-0.087,0.051-0.151c0.081-0.014,0.086,0.048,0.151,0.05c1.889,4.901,5.98,8.152,9.49,11.662
		c3.519,3.518,6.873,7.246,10.399,10.702c7.107,6.966,13.853,14.274,20.849,21.354c1.565,1.442,2.974,3.023,4.493,4.543
		C45.984,79.9,46.654,80.315,46.86,81.028z"/>
	<path style="fill-rule:evenodd;clip-rule:evenodd;" d="M33.078,81.028c-3.197,0.084-6.747,0.084-9.944,0
		c-0.781-0.408-1.351-1.097-1.969-1.716c-1.208-1.208-2.461-2.447-3.635-3.736c-2.861-3.141-6.117-6.076-9.036-9.238
		c-2.547-2.427-5.119-4.7-6.513-8.178c-1.39-3.468-2.005-7.581-1.969-12.722c0.026-0.041,0.053-0.082,0.051-0.151
		c0.051,0,0.101,0,0.151,0c1.232,2.989,3.233,5.353,5.401,7.522c6.426,6.428,12.887,12.824,19.284,19.334
		c1.958,2.275,4.351,4.23,6.311,6.562c0.319,0.381,0.669,0.801,1.01,1.161C32.538,80.204,33.087,80.477,33.078,81.028z"/>
</g>
<g id="Layer_1">
</g>
</svg>
