<?xml version="1.0" encoding="UTF-8" standalone="no"?>
<svg
   xmlns:dc="http://purl.org/dc/elements/1.1/"
   xmlns:cc="http://creativecommons.org/ns#"
   xmlns:rdf="http://www.w3.org/1999/02/22-rdf-syntax-ns#"
   xmlns:svg="http://www.w3.org/2000/svg"
   xmlns="http://www.w3.org/2000/svg"
   xmlns:sodipodi="http://sodipodi.sourceforge.net/DTD/sodipodi-0.dtd"
   xmlns:inkscape="http://www.inkscape.org/namespaces/inkscape"
   enable-background="new 0 0 18 18"
   id="Layer_1"
   version="1.1"
   viewBox="0 0 15.987664 16.014437"
   xml:space="preserve"
   sodipodi:docname="icon-2.svg"
   width="15.987664"
   height="16.014437"
   inkscape:version="0.92.1 r15371"><metadata
     id="metadata13"><rdf:RDF><cc:Work
         rdf:about=""><dc:format>image/svg+xml</dc:format><dc:type
           rdf:resource="http://purl.org/dc/dcmitype/StillImage" /><dc:title></dc:title></cc:Work></rdf:RDF></metadata><defs
     id="defs11" /><sodipodi:namedview
     pagecolor="#ffffff"
     bordercolor="#666666"
     borderopacity="1"
     objecttolerance="10"
     gridtolerance="10"
     guidetolerance="10"
     inkscape:pageopacity="0"
     inkscape:pageshadow="2"
     inkscape:window-width="1534"
     inkscape:window-height="877"
     id="namedview9"
     showgrid="false"
     fit-margin-top="0"
     fit-margin-left="0"
     fit-margin-right="0"
     fit-margin-bottom="0"
     inkscape:zoom="13.111111"
     inkscape:cx="7.9876645"
     inkscape:cy="8.0144374"
     inkscape:window-x="58"
     inkscape:window-y="-8"
     inkscape:window-maximized="1"
     inkscape:current-layer="Layer_1" /><g
     id="g6"
     transform="translate(-1.0123355,-1)"><path
       d="M 8,2.3 C 6.1,2.3 4.7,3 3.2,4.5 0.3,7.4 0.3,12 3.1,14.9 c 4.7,4.7 12.5,0.9 12.6,-4.9 0,0 0,-0.1 0,-0.1 L 8,10 V 2.3 c 0,0 0,0 0,0 z"
       id="path2"
       inkscape:connector-curvature="0" /><path
       d="M 14.9,3.1 C 13.5,1.7 11.9,1 10,1 10,2.8 10,1.4 9.9,8 16.6,8 15.2,8 17,8 17,6.1 16.3,4.5 14.9,3.1 Z"
       id="path4"
       inkscape:connector-curvature="0" /></g></svg>