<?xml version="1.0" encoding="UTF-8" standalone="no"?>
<svg
   xmlns:dc="http://purl.org/dc/elements/1.1/"
   xmlns:cc="http://creativecommons.org/ns#"
   xmlns:rdf="http://www.w3.org/1999/02/22-rdf-syntax-ns#"
   xmlns:svg="http://www.w3.org/2000/svg"
   xmlns="http://www.w3.org/2000/svg"
   xml:space="preserve"
   viewBox="0 0 430.117 411.00201"
   height="411.00201"
   width="430.117"
   y="0px"
   x="0px"
   id="Capa_1"
   version="1.1"><metadata
     id="metadata40"><rdf:RDF><cc:Work
         rdf:about=""><dc:format>image/svg+xml</dc:format><dc:type
           rdf:resource="http://purl.org/dc/dcmitype/StillImage" /><dc:title></dc:title></cc:Work></rdf:RDF></metadata><defs
     id="defs38" /><g
     transform="translate(0,-9.558)"
     id="g3"><path
       d="M 430.117,261.543 V 420.56 H 337.929 V 272.193 c 0,-37.271 -13.334,-62.707 -46.703,-62.707 -25.473,0 -40.632,17.142 -47.301,33.724 -2.432,5.928 -3.058,14.179 -3.058,22.477 V 420.56 h -92.219 c 0,0 1.242,-251.285 0,-277.32 h 92.21 v 39.309 c -0.187,0.294 -0.43,0.611 -0.606,0.896 h 0.606 v -0.896 c 12.251,-18.869 34.13,-45.824 83.102,-45.824 60.673,-0.001 106.157,39.636 106.157,124.818 z M 52.183,9.558 C 20.635,9.558 0,30.251 0,57.463 c 0,26.619 20.038,47.94 50.959,47.94 h 0.616 c 32.159,0 52.159,-21.317 52.159,-47.94 C 103.128,30.251 83.734,9.558 52.183,9.558 Z M 5.477,420.56 H 97.661 V 143.24 H 5.477 Z"
       id="LinkedIn" /></g><g
     transform="translate(0,-9.558)"
     id="g5" /><g
     transform="translate(0,-9.558)"
     id="g7" /><g
     transform="translate(0,-9.558)"
     id="g9" /><g
     transform="translate(0,-9.558)"
     id="g11" /><g
     transform="translate(0,-9.558)"
     id="g13" /><g
     transform="translate(0,-9.558)"
     id="g15" /><g
     transform="translate(0,-9.558)"
     id="g17" /><g
     transform="translate(0,-9.558)"
     id="g19" /><g
     transform="translate(0,-9.558)"
     id="g21" /><g
     transform="translate(0,-9.558)"
     id="g23" /><g
     transform="translate(0,-9.558)"
     id="g25" /><g
     transform="translate(0,-9.558)"
     id="g27" /><g
     transform="translate(0,-9.558)"
     id="g29" /><g
     transform="translate(0,-9.558)"
     id="g31" /><g
     transform="translate(0,-9.558)"
     id="g33" /></svg>