<?xml version="1.0" encoding="UTF-8" standalone="no"?>
<svg
   xmlns:dc="http://purl.org/dc/elements/1.1/"
   xmlns:cc="http://creativecommons.org/ns#"
   xmlns:rdf="http://www.w3.org/1999/02/22-rdf-syntax-ns#"
   xmlns:svg="http://www.w3.org/2000/svg"
   xmlns="http://www.w3.org/2000/svg"
   height="512"
   width="384"
   xml:space="preserve"
   viewBox="0 0 384 512"
   y="0px"
   x="0px"
   id="Capa_1"
   version="1.1"><metadata
     id="metadata43"><rdf:RDF><cc:Work
         rdf:about=""><dc:format>image/svg+xml</dc:format><dc:type
           rdf:resource="http://purl.org/dc/dcmitype/StillImage" /><dc:title></dc:title></cc:Work></rdf:RDF></metadata><defs
     id="defs41" /><g
     transform="translate(-64)"
     id="g6"><g
       id="g4"><path
         id="path2"
         d="m 437.333,192 h -32 V 149.333 C 405.333,66.99 338.344,0 256,0 173.656,0 106.667,66.99 106.667,149.333 V 192 h -32 C 68.771,192 64,196.771 64,202.667 V 469.334 C 64,492.865 83.135,512 106.667,512 H 405.334 C 428.865,512 448,492.865 448,469.333 V 202.667 C 448,196.771 443.229,192 437.333,192 Z M 287.938,414.823 c 0.333,3.01 -0.635,6.031 -2.656,8.292 -2.021,2.26 -4.917,3.552 -7.948,3.552 h -42.667 c -3.031,0 -5.927,-1.292 -7.948,-3.552 -2.021,-2.26 -2.99,-5.281 -2.656,-8.292 l 6.729,-60.51 C 219.865,346.365 213.334,333.792 213.334,320 c 0,-23.531 19.135,-42.667 42.667,-42.667 23.532,0 42.667,19.135 42.667,42.667 0,13.792 -6.531,26.365 -17.458,34.313 z M 341.333,192 H 170.667 V 149.333 C 170.667,102.281 208.948,64 256,64 c 47.052,0 85.333,38.281 85.333,85.333 V 192 Z" /></g></g><g
     transform="translate(-64)"
     id="g8" /><g
     transform="translate(-64)"
     id="g10" /><g
     transform="translate(-64)"
     id="g12" /><g
     transform="translate(-64)"
     id="g14" /><g
     transform="translate(-64)"
     id="g16" /><g
     transform="translate(-64)"
     id="g18" /><g
     transform="translate(-64)"
     id="g20" /><g
     transform="translate(-64)"
     id="g22" /><g
     transform="translate(-64)"
     id="g24" /><g
     transform="translate(-64)"
     id="g26" /><g
     transform="translate(-64)"
     id="g28" /><g
     transform="translate(-64)"
     id="g30" /><g
     transform="translate(-64)"
     id="g32" /><g
     transform="translate(-64)"
     id="g34" /><g
     transform="translate(-64)"
     id="g36" /></svg>