<?xml version="1.0" encoding="UTF-8" standalone="no"?>
<svg
   xmlns:dc="http://purl.org/dc/elements/1.1/"
   xmlns:cc="http://creativecommons.org/ns#"
   xmlns:rdf="http://www.w3.org/1999/02/22-rdf-syntax-ns#"
   xmlns:svg="http://www.w3.org/2000/svg"
   xmlns="http://www.w3.org/2000/svg"
   viewBox="0 0 566.37067 120"
   height="120"
   width="566.37067"
   xml:space="preserve"
   id="svg2"
   version="1.1"><metadata
     id="metadata8"><rdf:RDF><cc:Work
         rdf:about=""><dc:format>image/svg+xml</dc:format><dc:type
           rdf:resource="http://purl.org/dc/dcmitype/StillImage" /><dc:title></dc:title></cc:Work></rdf:RDF></metadata><defs
     id="defs6" /><g
     transform="matrix(1.3333333,0,0,-1.3333333,223.18533,343.18532)"
     id="g10"><g
       transform="rotate(-90,45,212.389)"
       id="g4496"><path
         d="m 20.7971,296.334 h -18.67 v -52.897 h 85.746 v 52.897 h -18.552 v -33.691 h -15.159 v 23.828 h -17.782 -0.088 v -23.828 h -15.495 z"
         style="fill:#e9e9e9;fill-opacity:1;fill-rule:nonzero;stroke:none"
         id="path12" /><path
         d="M 52.2212,205.772 2.1272,170.926 v -17.919 h 85.746 v 19.206 h -50.094 l 50.094,34.845 v 17.92 H 2.1272 v -19.206 z"
         style="fill:#e9e9e9;fill-opacity:1;fill-rule:nonzero;stroke:none"
         id="path14" /><path
         d="M 90,32.016 C 90,14.332 76.302,0 76.302,0 l -15.34,8.918 c 0,0 10.364,11.867 10.364,23.913 0,5.826 -2.241,11.039 -8.017,11.039 -7.243,0 -9.706,-11.215 -11.358,-16.132 C 49.417,20.195 43.852,1.12 25.279,1.12 10.631,1.12 0,13.134 0,30.012 0,45.606 10.444,57.286 10.444,57.286 l 15.341,-8.918 c 0,0 -7.289,-8.968 -7.289,-18.356 0,-5.671 1.996,-9.33 6.783,-9.33 5.637,0 7.404,7.668 8.967,12.895 1.744,5.835 6.904,29.617 29.063,29.617 C 77.215,63.194 90,51.493 90,32.016"
         style="fill:#e9e9e9;fill-opacity:1;fill-rule:nonzero;stroke:none"
         id="path16" /><path
         d="M 69.3213,331.542 H 2.0823 v -19.206 h 85.746 v 49.348 h -18.507 z"
         style="fill:#e9e9e9;fill-opacity:1;fill-rule:nonzero;stroke:none"
         id="path18" /><path
         d="m 54.1621,113.768 -52.035,30.25 V 121.802 L 32.4661,104.165 2.1271,86.527 V 64.312 l 52.035,30.25 z"
         style="fill:#f1c43f;fill-opacity:1;fill-rule:nonzero;stroke:none"
         id="path20" /><path
         d="m 69.321,94.5624 h 18.552 v 19.206 H 69.321 Z"
         style="fill:#f1c43f;fill-opacity:1;fill-rule:nonzero;stroke:none"
         id="path22" /><path
         d="M 69.3213,394.635 H 2.0823 v -19.206 h 85.746 v 49.349 h -18.507 z"
         style="fill:#e9e9e9;fill-opacity:1;fill-rule:nonzero;stroke:none"
         id="path24" /></g></g></svg>