<?xml version="1.0" encoding="UTF-8" standalone="no"?>
<!-- Generator: Adobe Illustrator 19.0.0, SVG Export Plug-In . SVG Version: 6.00 Build 0)  -->

<svg
   xmlns:dc="http://purl.org/dc/elements/1.1/"
   xmlns:cc="http://creativecommons.org/ns#"
   xmlns:rdf="http://www.w3.org/1999/02/22-rdf-syntax-ns#"
   xmlns:svg="http://www.w3.org/2000/svg"
   xmlns="http://www.w3.org/2000/svg"
   xmlns:sodipodi="http://sodipodi.sourceforge.net/DTD/sodipodi-0.dtd"
   xmlns:inkscape="http://www.inkscape.org/namespaces/inkscape"
   version="1.1"
   id="Layer_1"
   x="0px"
   y="0px"
   viewBox="0 0 370.854 511.99939"
   xml:space="preserve"
   sodipodi:docname="maps-and-flags.svg"
   width="370.854"
   height="511.99939"
   inkscape:version="0.92.1 r15371"><metadata
     id="metadata49"><rdf:RDF><cc:Work
         rdf:about=""><dc:format>image/svg+xml</dc:format><dc:type
           rdf:resource="http://purl.org/dc/dcmitype/StillImage" /><dc:title></dc:title></cc:Work></rdf:RDF></metadata><defs
     id="defs47" /><sodipodi:namedview
     pagecolor="#ffffff"
     bordercolor="#666666"
     borderopacity="1"
     objecttolerance="10"
     gridtolerance="10"
     guidetolerance="10"
     inkscape:pageopacity="0"
     inkscape:pageshadow="2"
     inkscape:window-width="1534"
     inkscape:window-height="877"
     id="namedview45"
     showgrid="false"
     fit-margin-top="0"
     fit-margin-left="0"
     fit-margin-right="0"
     fit-margin-bottom="0"
     inkscape:zoom="0.4609375"
     inkscape:cx="185.427"
     inkscape:cy="255.99938"
     inkscape:window-x="58"
     inkscape:window-y="-8"
     inkscape:window-maximized="1"
     inkscape:current-layer="Layer_1" /><g
     id="g6"
     transform="translate(-70.573)"><g
       id="g4"><path
         d="M 256,0 C 153.755,0 70.573,83.182 70.573,185.426 c 0,126.888 165.939,313.167 173.004,321.035 6.636,7.391 18.222,7.378 24.846,0 7.065,-7.868 173.004,-194.147 173.004,-321.035 C 441.425,83.182 358.244,0 256,0 Z m 0,469.729 C 200.153,403.391 103.965,272.512 103.965,185.428 103.965,101.594 172.167,33.392 256,33.392 c 83.833,0 152.035,68.202 152.035,152.035 C 408.034,272.515 311.861,403.37 256,469.729 Z"
         id="path2"
         inkscape:connector-curvature="0" /></g></g><g
     id="g12"
     transform="translate(-70.573)"><g
       id="g10"><path
         d="m 256,92.134 c -51.442,0 -93.292,41.851 -93.292,93.293 0,51.442 41.851,93.293 93.292,93.293 51.441,0 93.291,-41.851 93.291,-93.293 0,-51.442 -41.85,-93.293 -93.291,-93.293 z m 0,153.194 c -33.03,0 -59.9,-26.871 -59.9,-59.901 0,-33.03 26.871,-59.901 59.9,-59.901 33.029,0 59.9,26.871 59.9,59.901 0,33.03 -26.871,59.901 -59.9,59.901 z"
         id="path8"
         inkscape:connector-curvature="0" /></g></g><g
     id="g14"
     transform="translate(-70.573)" /><g
     id="g16"
     transform="translate(-70.573)" /><g
     id="g18"
     transform="translate(-70.573)" /><g
     id="g20"
     transform="translate(-70.573)" /><g
     id="g22"
     transform="translate(-70.573)" /><g
     id="g24"
     transform="translate(-70.573)" /><g
     id="g26"
     transform="translate(-70.573)" /><g
     id="g28"
     transform="translate(-70.573)" /><g
     id="g30"
     transform="translate(-70.573)" /><g
     id="g32"
     transform="translate(-70.573)" /><g
     id="g34"
     transform="translate(-70.573)" /><g
     id="g36"
     transform="translate(-70.573)" /><g
     id="g38"
     transform="translate(-70.573)" /><g
     id="g40"
     transform="translate(-70.573)" /><g
     id="g42"
     transform="translate(-70.573)" /></svg>