<?xml version="1.0" encoding="UTF-8" standalone="no"?>
<svg
   xmlns:dc="http://purl.org/dc/elements/1.1/"
   xmlns:cc="http://creativecommons.org/ns#"
   xmlns:rdf="http://www.w3.org/1999/02/22-rdf-syntax-ns#"
   xmlns:svg="http://www.w3.org/2000/svg"
   xmlns="http://www.w3.org/2000/svg"
   height="56.966"
   width="54.998211"
   xml:space="preserve"
   viewBox="0 0 54.998211 56.966"
   y="0px"
   x="0px"
   id="Capa_1"
   version="1.1"><metadata
     id="metadata39"><rdf:RDF><cc:Work
         rdf:about=""><dc:format>image/svg+xml</dc:format><dc:type
           rdf:resource="http://purl.org/dc/dcmitype/StillImage" /><dc:title></dc:title></cc:Work></rdf:RDF></metadata><defs
     id="defs37" /><path
     id="path2"
     d="M 54.162,51.887 40.604,37.786 C 44.09,33.642 46,28.428 46,23 46,10.318 35.682,0 23,0 10.318,0 0,10.318 0,23 c 0,12.682 10.318,23 23,23 4.761,0 9.298,-1.436 13.177,-4.162 l 13.661,14.208 c 0.571,0.593 1.339,0.92 2.162,0.92 0.779,0 1.518,-0.297 2.079,-0.837 1.192,-1.147 1.23,-3.049 0.083,-4.242 z M 23,6 c 9.374,0 17,7.626 17,17 0,9.374 -7.626,17 -17,17 C 13.626,40 6,32.374 6,23 6,13.626 13.626,6 23,6 Z" /><g
     transform="translate(-0.984)"
     id="g4" /><g
     transform="translate(-0.984)"
     id="g6" /><g
     transform="translate(-0.984)"
     id="g8" /><g
     transform="translate(-0.984)"
     id="g10" /><g
     transform="translate(-0.984)"
     id="g12" /><g
     transform="translate(-0.984)"
     id="g14" /><g
     transform="translate(-0.984)"
     id="g16" /><g
     transform="translate(-0.984)"
     id="g18" /><g
     transform="translate(-0.984)"
     id="g20" /><g
     transform="translate(-0.984)"
     id="g22" /><g
     transform="translate(-0.984)"
     id="g24" /><g
     transform="translate(-0.984)"
     id="g26" /><g
     transform="translate(-0.984)"
     id="g28" /><g
     transform="translate(-0.984)"
     id="g30" /><g
     transform="translate(-0.984)"
     id="g32" /></svg>