<?xml version="1.0" encoding="UTF-8" standalone="no"?>
<svg
   xmlns:dc="http://purl.org/dc/elements/1.1/"
   xmlns:cc="http://creativecommons.org/ns#"
   xmlns:rdf="http://www.w3.org/1999/02/22-rdf-syntax-ns#"
   xmlns:svg="http://www.w3.org/2000/svg"
   xmlns="http://www.w3.org/2000/svg"
   xml:space="preserve"
   style="enable-background:new 0 0 512 512;"
   viewBox="0 0 512 512"
   y="0px"
   x="0px"
   id="Capa_1"
   version="1.1"><metadata
     id="metadata49"><rdf:RDF><cc:Work
         rdf:about=""><dc:format>image/svg+xml</dc:format><dc:type
           rdf:resource="http://purl.org/dc/dcmitype/StillImage" /><dc:title></dc:title></cc:Work></rdf:RDF></metadata><defs
     id="defs47" /><g
     id="g6"><g
       id="g4"><path
         id="path2"
         d="M491.532,305.92c7.874-37.339,6.789-76.306-3.2-113.149c-10.93-40.311-32.404-77.314-62.1-107.01    c-29.696-29.695-66.699-51.17-107.01-62.099c-36.843-9.99-75.81-11.073-113.151-3.2C181.626,5.167,152.633-1.916,123.652,0.446    C91.901,3.035,61.994,16.883,39.438,39.439S3.035,91.901,0.446,123.652c-2.364,28.982,4.719,57.972,20.016,82.419    c-7.874,37.339-6.789,76.309,3.2,113.151c10.929,40.311,32.403,77.315,62.099,107.01c29.696,29.695,66.699,51.169,107.009,62.099    c36.843,9.991,75.811,11.074,113.15,3.201c21.366,13.37,46.201,20.469,71.469,20.468c3.643,0,7.3-0.148,10.953-0.445    c31.753-2.589,61.663-16.437,84.219-38.994s36.404-52.467,38.993-84.219C513.917,359.36,506.83,330.366,491.532,305.92z     M450.305,450.305c-35.563,35.562-91.179,40.41-132.239,11.523c-2.677-1.882-5.843-2.866-9.056-2.866    c-1.233,0-2.473,0.145-3.692,0.44c-71.562,17.274-145.319-3.447-197.3-55.427c-51.981-51.981-72.7-125.738-55.425-197.301    c1.062-4.4,0.177-9.045-2.426-12.748C21.286,152.867,26.134,97.255,61.695,61.695c35.56-35.56,91.171-40.411,132.231-11.528    c3.703,2.603,8.346,3.489,12.747,2.426c71.564-17.274,145.319,3.445,197.301,55.427C455.955,160,476.675,233.757,459.4,305.318    c-1.062,4.4-0.177,9.046,2.427,12.749C490.714,359.127,485.868,414.742,450.305,450.305z" /></g></g><g
     id="g12"><g
       id="g10"><path
         id="path8"
         d="M258.946,238.782c-32.503-10.994-69.341-23.457-69.341-41.884c0-23.506,30.405-43.364,66.397-43.364    c35.991,0,66.397,19.859,66.397,43.364c0,8.691,7.046,15.738,15.738,15.738s15.738-7.046,15.738-15.738    c0-20.987-10.868-40.364-30.603-54.565c-18.169-13.074-42.059-20.273-67.27-20.273s-49.101,7.2-67.27,20.273    c-19.735,14.2-30.603,33.578-30.603,54.565c0,19.137,10.989,35.285,32.66,47.996c16.356,9.593,37.562,16.766,58.07,23.703    c36.154,12.23,73.54,24.877,73.54,46.503c0,23.506-30.406,43.364-66.397,43.364s-66.397-19.859-66.397-43.364    c0-8.691-7.046-15.738-15.738-15.738s-15.738,7.046-15.738,15.738c0,20.987,10.867,40.364,30.603,54.565    c18.169,13.074,42.059,20.273,67.27,20.273c25.212,0,49.101-7.2,67.27-20.273c19.735-14.2,30.603-33.578,30.603-54.565    C353.876,270.895,303.442,253.835,258.946,238.782z" /></g></g><g
     id="g14" /><g
     id="g16" /><g
     id="g18" /><g
     id="g20" /><g
     id="g22" /><g
     id="g24" /><g
     id="g26" /><g
     id="g28" /><g
     id="g30" /><g
     id="g32" /><g
     id="g34" /><g
     id="g36" /><g
     id="g38" /><g
     id="g40" /><g
     id="g42" /></svg>