<?xml version="1.0" encoding="UTF-8" standalone="no"?>
<svg
   xmlns:dc="http://purl.org/dc/elements/1.1/"
   xmlns:cc="http://creativecommons.org/ns#"
   xmlns:rdf="http://www.w3.org/1999/02/22-rdf-syntax-ns#"
   xmlns:svg="http://www.w3.org/2000/svg"
   xmlns="http://www.w3.org/2000/svg"
   xmlns:sodipodi="http://sodipodi.sourceforge.net/DTD/sodipodi-0.dtd"
   xmlns:inkscape="http://www.inkscape.org/namespaces/inkscape"
   enable-background="new 0 0 18 18"
   id="Layer_1"
   version="1.1"
   viewBox="0 0 12 16"
   xml:space="preserve"
   sodipodi:docname="support_icon_2.svg"
   width="12"
   height="16"
   inkscape:version="0.92.1 r15371"><metadata
     id="metadata11"><rdf:RDF><cc:Work
         rdf:about=""><dc:format>image/svg+xml</dc:format><dc:type
           rdf:resource="http://purl.org/dc/dcmitype/StillImage" /><dc:title></dc:title></cc:Work></rdf:RDF></metadata><defs
     id="defs9" /><sodipodi:namedview
     pagecolor="#ffffff"
     bordercolor="#666666"
     borderopacity="1"
     objecttolerance="10"
     gridtolerance="10"
     guidetolerance="10"
     inkscape:pageopacity="0"
     inkscape:pageshadow="2"
     inkscape:window-width="751"
     inkscape:window-height="480"
     id="namedview7"
     showgrid="false"
     fit-margin-top="0"
     fit-margin-left="0"
     fit-margin-right="0"
     fit-margin-bottom="0"
     inkscape:zoom="13.111111"
     inkscape:cx="6"
     inkscape:cy="8"
     inkscape:window-x="319"
     inkscape:window-y="72"
     inkscape:window-maximized="0"
     inkscape:current-layer="Layer_1" /><g
     id="g4"
     transform="translate(-3,-1)"><path
       d="M 3,17 H 15 V 7 H 13 V 5 C 13,2.8 11.2,1 9,1 6.8,1 5,2.8 5,5 V 7 H 3 Z m 7,-4.3 V 15 H 8 V 12.7 C 7.4,12.4 7,11.7 7,11 7,9.9 7.9,9 9,9 c 1.1,0 2,0.9 2,2 0,0.7 -0.4,1.4 -1,1.7 z M 7,5 C 7,3.9 7.9,3 9,3 c 1.1,0 2,0.9 2,2 V 7 H 7 Z"
       id="path2"
       inkscape:connector-curvature="0" /></g></svg>