<?xml version="1.0" encoding="UTF-8" standalone="no"?>
<svg
   xmlns:dc="http://purl.org/dc/elements/1.1/"
   xmlns:cc="http://creativecommons.org/ns#"
   xmlns:rdf="http://www.w3.org/1999/02/22-rdf-syntax-ns#"
   xmlns:svg="http://www.w3.org/2000/svg"
   xmlns="http://www.w3.org/2000/svg"
   xmlns:sodipodi="http://sodipodi.sourceforge.net/DTD/sodipodi-0.dtd"
   xmlns:inkscape="http://www.inkscape.org/namespaces/inkscape"
   width="455.10892pt"
   height="455.12003pt"
   viewBox="0 0 455.10892 455.12003"
   version="1.1"
   id="svg9"
   sodipodi:docname="support_icon_3.svg"
   inkscape:version="0.92.1 r15371">
  <metadata
     id="metadata15">
    <rdf:RDF>
      <cc:Work
         rdf:about="">
        <dc:format>image/svg+xml</dc:format>
        <dc:type
           rdf:resource="http://purl.org/dc/dcmitype/StillImage" />
        <dc:title></dc:title>
      </cc:Work>
    </rdf:RDF>
  </metadata>
  <defs
     id="defs13" />
  <sodipodi:namedview
     pagecolor="#ffffff"
     bordercolor="#666666"
     borderopacity="1"
     objecttolerance="10"
     gridtolerance="10"
     guidetolerance="10"
     inkscape:pageopacity="0"
     inkscape:pageshadow="2"
     inkscape:window-width="1534"
     inkscape:window-height="877"
     id="namedview11"
     showgrid="false"
     fit-margin-top="0"
     fit-margin-left="0"
     fit-margin-right="0"
     fit-margin-bottom="0"
     inkscape:zoom="0.34570313"
     inkscape:cx="303.40592"
     inkscape:cy="303.40335"
     inkscape:window-x="58"
     inkscape:window-y="-8"
     inkscape:window-maximized="1"
     inkscape:current-layer="svg9" />
  <g
     id="#000000ff"
     transform="translate(-28.445556,-28.4325)">
    <path
       d="m 56.9,28.44 c 132.73,-0.01 265.47,-0.01 398.2,0 0.02,56.89 0.01,113.78 0,170.66 -56.89,0.02 -113.77,-0.01 -170.66,0.02 0,18.95 0,37.91 0,56.87 56.89,0.03 113.78,-0.01 170.67,0.02 0,37.92 0.01,75.84 -0.01,113.77 -18.96,0.01 -37.92,0.01 -56.88,0 -0.02,-18.96 0.01,-37.92 -0.01,-56.88 -94.81,-0.01 -189.61,-0.01 -284.42,0 -0.02,18.96 0.01,37.92 -0.01,56.88 -18.96,0.01 -37.92,0.01 -56.88,0 -0.02,-37.93 -0.01,-75.85 -0.01,-113.77 56.89,-0.03 113.78,0.01 170.67,-0.02 0,-18.96 0,-37.92 0,-56.87 -56.89,-0.03 -113.77,0 -170.66,-0.02 -0.01,-56.88 -0.02,-113.77 0,-170.66 m 76.51,55.17 c -5.16,1.37 -9.95,4.26 -13.35,8.39 -9.08,11.1 -8.24,28.91 2.02,38.99 11.52,12.29 34.39,11.01 43.84,-3.17 6.86,-10.72 6.46,-26.09 -1.71,-36.03 -7.35,-8.75 -20.13,-10.98 -30.8,-8.18 m 94.15,1.73 c 0.01,18.96 0,37.91 0.01,56.87 47.4,0.01 94.8,0.01 142.2,0 0.01,-18.96 0.01,-37.92 0.01,-56.88 -47.41,0.01 -94.81,-0.01 -142.22,0.01 z"
       id="path2"
       inkscape:connector-curvature="0"
       style="opacity:1;fill:#000000" />
    <path
       d="m 28.45,398.23 c 37.92,-0.01 75.84,-0.01 113.77,0 0,28.44 0,56.87 0,85.31 -37.93,0.02 -75.85,0.01 -113.77,0.01 -0.01,-28.44 0,-56.88 0,-85.32 z"
       id="path4"
       inkscape:connector-curvature="0"
       style="opacity:1;fill:#000000" />
    <path
       d="m 369.78,398.23 c 37.93,-0.01 75.85,-0.01 113.77,0 0,28.44 0.01,56.88 0,85.32 -37.92,0 -75.84,0.01 -113.77,-0.01 0,-28.44 0,-56.87 0,-85.31 z"
       id="path6"
       inkscape:connector-curvature="0"
       style="opacity:1;fill:#000000" />
  </g>
</svg>
