<?xml version="1.0" encoding="UTF-8" standalone="no"?>
<svg
   xmlns:dc="http://purl.org/dc/elements/1.1/"
   xmlns:cc="http://creativecommons.org/ns#"
   xmlns:rdf="http://www.w3.org/1999/02/22-rdf-syntax-ns#"
   xmlns:svg="http://www.w3.org/2000/svg"
   xmlns="http://www.w3.org/2000/svg"
   height="66.052826"
   width="72.006294"
   xml:space="preserve"
   viewBox="0 0 24.002098 22.017609"
   y="0px"
   x="0px"
   id="Layer_1"
   version="1.1"><metadata
     id="metadata12"><rdf:RDF><cc:Work
         rdf:about=""><dc:format>image/svg+xml</dc:format><dc:type
           rdf:resource="http://purl.org/dc/dcmitype/StillImage" /><dc:title></dc:title></cc:Work></rdf:RDF></metadata><defs
     id="defs10" /><g
     transform="translate(-3,-3.9823909)"
     id="Filled_1_"><path
       id="path2"
       d="M 24.634,5.128 C 23.96,5.399 9.747,11.52 4.852,13.626 4.566,13.749 4,13.936 4,14.546 c 0,0.49 0.368,0.732 0.792,0.905 1.071,0.437 5.011,2.049 5.011,2.049 0,0 1.407,4.306 1.699,5.25 0.292,0.945 0.527,0.967 0.527,0.967 0.065,0.029 0.128,0.04 0.187,0.04 0.188,0 0.333,-0.112 0.333,-0.112 l 3.672,-3.176 4.308,4.075 c 0,0 0.428,0.456 0.901,0.456 0.576,0 0.993,-0.587 1.066,-0.969 C 22.597,23.497 25.94,6.337 25.94,6.337 26.243,4.954 25.344,4.841 24.634,5.128 Z"
       style="fill:none;stroke:#000000;stroke-width:2;stroke-miterlimit:10" /><path
       id="path4"
       d="m 20.866,10 c -0.153,0 -0.359,0.149 -0.469,0.219 -1.575,1.004 -9.469,5.597 -11.634,6.855 0.61,0.25 1.04,0.426 1.04,0.426 0,0 1.407,4.306 1.699,5.25 0.292,0.945 0.527,0.967 0.527,0.967 0.065,0.029 0.128,0.04 0.187,0.04 0.048,0 0.081,-0.017 0.121,-0.029 l 1.439,-5.76 c 0,0 6.556,-6.785 6.951,-7.18 0.318,-0.316 0.384,-0.428 0.384,-0.537 C 21.111,10.105 21.036,10 20.866,10 Z" /></g></svg>