<?xml version="1.0" encoding="UTF-8" standalone="no"?>
<svg
   xmlns:dc="http://purl.org/dc/elements/1.1/"
   xmlns:cc="http://creativecommons.org/ns#"
   xmlns:rdf="http://www.w3.org/1999/02/22-rdf-syntax-ns#"
   xmlns:svg="http://www.w3.org/2000/svg"
   xmlns="http://www.w3.org/2000/svg"
   xml:space="preserve"
   viewBox="0 0 98.480244 56.793997"
   height="56.793999"
   width="98.480247"
   y="0px"
   x="0px"
   id="Capa_1"
   version="1.1"><metadata
     id="metadata41"><rdf:RDF><cc:Work
         rdf:about=""><dc:format>image/svg+xml</dc:format><dc:type
           rdf:resource="http://purl.org/dc/dcmitype/StillImage" /><dc:title></dc:title></cc:Work></rdf:RDF></metadata><defs
     id="defs39" /><g
     transform="translate(-3.7497245e-4,-20.843)"
     id="g4"><path
       id="path2"
       d="M 97.204,45.788 C 96.339,44.768 75.667,20.843 49.241,20.843 c -26.427,0 -47.098,23.925 -47.965,24.946 -1.701,2 -1.701,4.902 10e-4,6.904 0.866,1.02 21.537,24.944 47.964,24.944 26.426,0 47.098,-23.926 47.964,-24.946 1.701,-2 1.701,-4.902 -0.001,-6.903 z M 57.313,35.215 c 1.777,-0.97 4.255,0.143 5.534,2.485 1.279,2.343 0.875,5.029 -0.902,5.999 -1.776,0.971 -4.255,-0.143 -5.535,-2.485 -1.278,-2.343 -0.875,-5.029 0.903,-5.999 z M 49.241,68.969 C 30.781,68.969 15.246,54.792 9.869,49.24 13.5,45.49 21.767,37.811 32.436,33.219 c -2.081,3.166 -3.301,6.949 -3.301,11.021 0,11.104 9.001,20.105 20.105,20.105 11.104,0 20.106,-9.001 20.106,-20.105 0,-4.072 -1.219,-7.855 -3.3,-11.021 C 76.715,37.812 84.981,45.49 88.612,49.24 83.235,54.795 67.7,68.969 49.241,68.969 Z" /></g><g
     transform="translate(-3.7497245e-4,-20.843)"
     id="g6" /><g
     transform="translate(-3.7497245e-4,-20.843)"
     id="g8" /><g
     transform="translate(-3.7497245e-4,-20.843)"
     id="g10" /><g
     transform="translate(-3.7497245e-4,-20.843)"
     id="g12" /><g
     transform="translate(-3.7497245e-4,-20.843)"
     id="g14" /><g
     transform="translate(-3.7497245e-4,-20.843)"
     id="g16" /><g
     transform="translate(-3.7497245e-4,-20.843)"
     id="g18" /><g
     transform="translate(-3.7497245e-4,-20.843)"
     id="g20" /><g
     transform="translate(-3.7497245e-4,-20.843)"
     id="g22" /><g
     transform="translate(-3.7497245e-4,-20.843)"
     id="g24" /><g
     transform="translate(-3.7497245e-4,-20.843)"
     id="g26" /><g
     transform="translate(-3.7497245e-4,-20.843)"
     id="g28" /><g
     transform="translate(-3.7497245e-4,-20.843)"
     id="g30" /><g
     transform="translate(-3.7497245e-4,-20.843)"
     id="g32" /><g
     transform="translate(-3.7497245e-4,-20.843)"
     id="g34" /></svg>